<?xml version="1.0" encoding="UTF-8" standalone="no"?>
<!-- Created with Inkscape (http://www.inkscape.org/) -->

<svg
   width="64"
   height="64"
   viewBox="0 0 64 64"
   version="1.1"
   id="svg1"
   xmlns="http://www.w3.org/2000/svg"
   xmlns:svg="http://www.w3.org/2000/svg">
  <defs
     id="defs1" />
  <g
     id="layer1">
    <rect
       style="fill:#689d6a;fill-opacity:1;stroke-width:286.891;stroke-dasharray:none;paint-order:normal"
       id="rect1"
       width="64"
       height="64"
       x="0"
       y="0" />
    <path
       d="m 36.333337,6 c 5.98303,0 10.833329,4.850258 10.833329,10.833336 V 42.833341 C 47.166666,51.209674 40.376332,58 31.999999,58 23.623682,58 16.833333,51.209674 16.833333,42.833341 V 25.500004 h 4.33333 v 17.333337 c 0,5.983032 4.850255,10.833327 10.833336,10.833327 5.98303,0 10.833335,-4.850295 10.833335,-10.833327 V 16.833336 c 0,-3.58984 -2.910046,-6.499998 -6.499997,-6.499998 -3.58995,0 -6.499999,2.910158 -6.499999,6.499998 v 26.000005 c 0,1.196651 0.970015,2.166668 2.166662,2.166668 1.196646,0 2.166663,-0.970017 2.166663,-2.166668 V 19.000005 H 38.5 v 23.833336 c 0,3.589957 -2.91005,6.500007 -6.5,6.500007 -3.589953,0 -6.5,-2.910049 -6.5,-6.500007 V 16.833336 C 25.499999,10.850258 30.350299,6 36.333337,6 Z"
       fill="currentColor"
       id="path1"
       style="fill:#282828;fill-opacity:1;stroke-width:2.16676;stroke-dasharray:none" />
  </g>
</svg>
